<mxfile host="app.diagrams.net" modified="2021-09-04T08:57:41.486Z" agent="5.0 (Macintosh; Intel Mac OS X 10_15_7) AppleWebKit/537.36 (KHTML, like Gecko) Chrome/92.0.4515.131 Safari/537.36" etag="9BelOMFhFLjMq-ZzkwZg" version="15.0.4" type="github">
  <diagram id="NVRt8QGrQ7ovo_fnlYh-" name="Page-1">
    <mxGraphModel dx="587" dy="770" grid="0" gridSize="10" guides="1" tooltips="1" connect="1" arrows="1" fold="1" page="0" pageScale="1" pageWidth="827" pageHeight="1169" math="0" shadow="0">
      <root>
        <mxCell id="0" />
        <mxCell id="1" parent="0" />
        <mxCell id="ojqeH5T2TJVTUJqGkXlx-1" value="算法流程" style="rounded=0;whiteSpace=wrap;html=1;fillColor=#dae8fc;strokeColor=#6c8ebf;" vertex="1" parent="1">
          <mxGeometry x="300" y="-215" width="90" height="40" as="geometry" />
        </mxCell>
        <mxCell id="ojqeH5T2TJVTUJqGkXlx-2" value="数据增强" style="rounded=0;whiteSpace=wrap;html=1;fillColor=#ffe6cc;strokeColor=#d79b00;" vertex="1" parent="1">
          <mxGeometry x="440" y="-320" width="90" height="40" as="geometry" />
        </mxCell>
        <mxCell id="ojqeH5T2TJVTUJqGkXlx-3" value="预训练数据集" style="rounded=0;whiteSpace=wrap;html=1;fillColor=#fff2cc;strokeColor=#d6b656;" vertex="1" parent="1">
          <mxGeometry x="440" y="-250" width="90" height="40" as="geometry" />
        </mxCell>
        <mxCell id="ojqeH5T2TJVTUJqGkXlx-4" value="分割模型" style="rounded=0;whiteSpace=wrap;html=1;fillColor=#f8cecc;strokeColor=#b85450;" vertex="1" parent="1">
          <mxGeometry x="440" y="-180" width="90" height="40" as="geometry" />
        </mxCell>
        <mxCell id="ojqeH5T2TJVTUJqGkXlx-5" value="假阳性检测" style="rounded=0;whiteSpace=wrap;html=1;fillColor=#e1d5e7;strokeColor=#9673a6;" vertex="1" parent="1">
          <mxGeometry x="440" y="-110" width="90" height="40" as="geometry" />
        </mxCell>
        <mxCell id="ojqeH5T2TJVTUJqGkXlx-6" value="" style="shape=curlyBracket;whiteSpace=wrap;html=1;rounded=1;" vertex="1" parent="1">
          <mxGeometry x="400" y="-320" width="30" height="250" as="geometry" />
        </mxCell>
      </root>
    </mxGraphModel>
  </diagram>
</mxfile>
